<svg width="16" height="17" viewBox="0 0 16 17" fill="none" xmlns="http://www.w3.org/2000/svg">
  <path d="M12 5.83342H13.3333C13.5101 5.83342 13.6797 5.90365 13.8047 6.02868C13.9298 6.1537 14 6.32327 14 6.50008V14.5001C14 14.6769 13.9298 14.8465 13.8047 14.9715C13.6797 15.0965 13.5101 15.1667 13.3333 15.1667H2.66667C2.48986 15.1667 2.32029 15.0965 2.19526 14.9715C2.07024 14.8465 2 14.6769 2 14.5001V6.50008C2 6.32327 2.07024 6.1537 2.19526 6.02868C2.32029 5.90365 2.48986 5.83342 2.66667 5.83342H4V5.16675C4 4.10588 4.42143 3.08847 5.17157 2.33832C5.92172 1.58818 6.93913 1.16675 8 1.16675C9.06087 1.16675 10.0783 1.58818 10.8284 2.33832C11.5786 3.08847 12 4.10588 12 5.16675V5.83342ZM10.6667 5.83342V5.16675C10.6667 4.4595 10.3857 3.78123 9.88562 3.28113C9.38552 2.78103 8.70724 2.50008 8 2.50008C7.29276 2.50008 6.61448 2.78103 6.11438 3.28113C5.61428 3.78123 5.33333 4.4595 5.33333 5.16675V5.83342H10.6667ZM7.33333 9.83342V11.1667H8.66667V9.83342H7.33333ZM4.66667 9.83342V11.1667H6V9.83342H4.66667ZM10 9.83342V11.1667H11.3333V9.83342H10Z" fill="#222222"/>
</svg>