<svg width="24" height="24" viewBox="0 0 24 24" fill="none" xmlns="http://www.w3.org/2000/svg">
  <path d="M12 2.25C10.3067 2.24987 8.64255 2.69074 7.17141 3.52921C5.70026 4.36768 4.47285 5.57483 3.61001 7.03182C2.74717 8.4888 2.27866 10.1454 2.25061 11.8385C2.22255 13.5315 2.63592 15.2027 3.45001 16.6875L2.65313 19.4906C2.57819 19.7486 2.57343 20.0218 2.63935 20.2822C2.70527 20.5426 2.83948 20.7807 3.02813 20.9719C3.21677 21.1614 3.45321 21.2964 3.71235 21.3624C3.97149 21.4284 4.24367 21.4231 4.50001 21.3469L7.31251 20.55C8.6159 21.2644 10.0654 21.6713 11.5501 21.7397C13.0349 21.8081 14.5156 21.5361 15.8791 20.9445C17.2427 20.353 18.4529 19.4575 19.4174 18.3266C20.3818 17.1956 21.0749 15.8592 21.4437 14.4193C21.8125 12.9795 21.8473 11.4744 21.5453 10.0191C21.2433 8.56374 20.6126 7.19672 19.7014 6.02249C18.7901 4.84826 17.6225 3.8979 16.2877 3.24406C14.9529 2.59022 13.4863 2.25021 12 2.25ZM7.50001 13.125C7.2775 13.125 7.06 13.059 6.87499 12.9354C6.68999 12.8118 6.54579 12.6361 6.46064 12.4305C6.37549 12.225 6.35322 11.9988 6.39662 11.7805C6.44003 11.5623 6.54718 11.3618 6.70451 11.2045C6.86185 11.0472 7.0623 10.94 7.28053 10.8966C7.49876 10.8532 7.72496 10.8755 7.93053 10.9606C8.13609 11.0458 8.31179 11.19 8.43541 11.375C8.55903 11.56 8.62501 11.7775 8.62501 12C8.62501 12.2984 8.50648 12.5845 8.2955 12.7955C8.08452 13.0065 7.79838 13.125 7.50001 13.125ZM12 13.125C11.7775 13.125 11.56 13.059 11.375 12.9354C11.19 12.8118 11.0458 12.6361 10.9606 12.4305C10.8755 12.225 10.8532 11.9988 10.8966 11.7805C10.94 11.5623 11.0472 11.3618 11.2045 11.2045C11.3618 11.0472 11.5623 10.94 11.7805 10.8966C11.9988 10.8532 12.225 10.8755 12.4305 10.9606C12.6361 11.0458 12.8118 11.19 12.9354 11.375C13.059 11.56 13.125 11.7775 13.125 12C13.125 12.2984 13.0065 12.5845 12.7955 12.7955C12.5845 13.0065 12.2984 13.125 12 13.125ZM16.5 13.125C16.2775 13.125 16.06 13.059 15.875 12.9354C15.69 12.8118 15.5458 12.6361 15.4606 12.4305C15.3755 12.225 15.3532 11.9988 15.3966 11.7805C15.44 11.5623 15.5472 11.3618 15.7045 11.2045C15.8618 11.0472 16.0623 10.94 16.2805 10.8966C16.4988 10.8532 16.725 10.8755 16.9305 10.9606C17.1361 11.0458 17.3118 11.19 17.4354 11.375C17.559 11.56 17.625 11.7775 17.625 12C17.625 12.2984 17.5065 12.5845 17.2955 12.7955C17.0845 13.0065 16.7984 13.125 16.5 13.125Z" fill="#0A70B8"/>
</svg>