<svg width="24" height="24" viewBox="0 0 24 24" fill="none" xmlns="http://www.w3.org/2000/svg">
  <path d="M3.33801 17C4.21553 18.5207 5.47812 19.7835 6.99871 20.6612C8.51931 21.539 10.2443 22.0007 12 22C13.7558 22.0007 15.4807 21.539 17.0013 20.6612C18.5219 19.7835 19.7845 18.5207 20.662 17M3.33801 7C4.21553 5.47928 5.47812 4.21651 6.99871 3.33877C8.51931 2.46103 10.2443 1.99929 12 2C13.7558 1.99929 15.4807 2.46103 17.0013 3.33877C18.5219 4.21651 19.7845 5.47928 20.662 7" stroke="#0A70B8" stroke-width="1.5" stroke-linecap="round" stroke-linejoin="round"/>
  <path d="M13 21.9498C13 21.9498 14.408 20.0968 15.295 16.9998M13 2.0498C13 2.0498 14.408 3.9018 15.295 6.9998M11 21.9498C11 21.9498 9.592 20.0978 8.705 16.9998M11 2.0498C11 2.0498 9.592 3.9018 8.705 6.9998M9 9.9998L10.5 14.9998L12 9.9998L13.5 14.9998L15 9.9998M1 9.9998L2.5 14.9998L4 9.9998L5.5 14.9998L7 9.9998M17 9.9998L18.5 14.9998L20 9.9998L21.5 14.9998L23 9.9998" stroke="#0A70B8" stroke-width="1.5" stroke-linecap="round" stroke-linejoin="round"/>
</svg>